<?xml version="1.0" encoding="UTF-8" standalone="no"?>
<!DOCTYPE svg PUBLIC "-//W3C//DTD SVG 1.1//EN"
 "http://www.w3.org/Graphics/SVG/1.1/DTD/svg11.dtd">
<!-- Generated by graphviz version 2.36.0 (20140111.2315)
 -->
<!-- Title: controllers_diagram Pages: 1 -->
<svg width="918pt" height="561pt"
 viewBox="0.00 0.00 917.55 561.47" xmlns="http://www.w3.org/2000/svg" xmlns:xlink="http://www.w3.org/1999/xlink">
<g id="graph0" class="graph" transform="scale(1 1) rotate(0) translate(4 557.467)">
<title>controllers_diagram</title>
<polygon fill="white" stroke="none" points="-4,4 -4,-557.467 913.552,-557.467 913.552,4 -4,4"/>
<!-- _diagram_info -->
<g id="node1" class="node"><title>_diagram_info</title>
<text text-anchor="start" x="393" y="-518.6" font-family="Times,serif" font-size="13.00">Controllers diagram</text>
<text text-anchor="start" x="393" y="-504.6" font-family="Times,serif" font-size="13.00">Date: Aug 11 2014 &#45; 13:24</text>
<text text-anchor="start" x="393" y="-490.6" font-family="Times,serif" font-size="13.00">Migration version: 20140808092127</text>
<text text-anchor="start" x="393" y="-476.6" font-family="Times,serif" font-size="13.00">Generated by RailRoady 1.1.2</text>
<text text-anchor="start" x="393" y="-462.6" font-family="Times,serif" font-size="13.00">http://railroady.prestonlee.com</text>
</g>
<!-- PostsController -->
<g id="node2" class="node"><title>PostsController</title>
<path fill="none" stroke="black" d="M66.8198,-0.5C66.8198,-0.5 170.82,-0.5 170.82,-0.5 176.82,-0.5 182.82,-6.5 182.82,-12.5 182.82,-12.5 182.82,-201.5 182.82,-201.5 182.82,-207.5 176.82,-213.5 170.82,-213.5 170.82,-213.5 66.8198,-213.5 66.8198,-213.5 60.8198,-213.5 54.8198,-207.5 54.8198,-201.5 54.8198,-201.5 54.8198,-12.5 54.8198,-12.5 54.8198,-6.5 60.8198,-0.5 66.8198,-0.5"/>
<text text-anchor="middle" x="118.82" y="-198.3" font-family="Times,serif" font-size="14.00">PostsController</text>
<polyline fill="none" stroke="black" points="54.8198,-190.5 182.82,-190.5 "/>
<text text-anchor="start" x="62.8198" y="-175.3" font-family="Times,serif" font-size="14.00">create</text>
<text text-anchor="start" x="62.8198" y="-160.3" font-family="Times,serif" font-size="14.00">destroy</text>
<text text-anchor="start" x="62.8198" y="-145.3" font-family="Times,serif" font-size="14.00">edit</text>
<text text-anchor="start" x="62.8198" y="-130.3" font-family="Times,serif" font-size="14.00">index</text>
<text text-anchor="start" x="62.8198" y="-115.3" font-family="Times,serif" font-size="14.00">new</text>
<text text-anchor="start" x="62.8198" y="-100.3" font-family="Times,serif" font-size="14.00">show</text>
<text text-anchor="start" x="62.8198" y="-85.3" font-family="Times,serif" font-size="14.00">update</text>
<polyline fill="none" stroke="black" points="54.8198,-77.5 182.82,-77.5 "/>
<polyline fill="none" stroke="black" points="54.8198,-53.5 182.82,-53.5 "/>
<text text-anchor="start" x="62.8198" y="-38.3" font-family="Times,serif" font-size="14.00">_layout</text>
<text text-anchor="start" x="62.8198" y="-23.3" font-family="Times,serif" font-size="14.00">post_params</text>
<text text-anchor="start" x="62.8198" y="-8.3" font-family="Times,serif" font-size="14.00">post_params_update</text>
</g>
<!-- UsersController -->
<g id="node3" class="node"><title>UsersController</title>
<path fill="none" stroke="black" d="M283.677,-99.7612C283.677,-99.7612 362.677,-99.7612 362.677,-99.7612 368.677,-99.7612 374.677,-105.761 374.677,-111.761 374.677,-111.761 374.677,-210.761 374.677,-210.761 374.677,-216.761 368.677,-222.761 362.677,-222.761 362.677,-222.761 283.677,-222.761 283.677,-222.761 277.677,-222.761 271.677,-216.761 271.677,-210.761 271.677,-210.761 271.677,-111.761 271.677,-111.761 271.677,-105.761 277.677,-99.7612 283.677,-99.7612"/>
<text text-anchor="middle" x="323.177" y="-207.561" font-family="Times,serif" font-size="14.00">UsersController</text>
<polyline fill="none" stroke="black" points="271.677,-199.761 374.677,-199.761 "/>
<text text-anchor="start" x="279.677" y="-184.561" font-family="Times,serif" font-size="14.00">index</text>
<text text-anchor="start" x="279.677" y="-169.561" font-family="Times,serif" font-size="14.00">my_user</text>
<text text-anchor="start" x="279.677" y="-154.561" font-family="Times,serif" font-size="14.00">show</text>
<polyline fill="none" stroke="black" points="271.677,-146.761 374.677,-146.761 "/>
<polyline fill="none" stroke="black" points="271.677,-122.761 374.677,-122.761 "/>
<text text-anchor="start" x="279.677" y="-107.561" font-family="Times,serif" font-size="14.00">_layout</text>
</g>
<!-- ApplicationController -->
<g id="node4" class="node"><title>ApplicationController</title>
<path fill="none" stroke="black" d="M12,-311.218C12,-311.218 182,-311.218 182,-311.218 188,-311.218 194,-317.218 194,-323.218 194,-323.218 194,-392.218 194,-392.218 194,-398.218 188,-404.218 182,-404.218 182,-404.218 12,-404.218 12,-404.218 6,-404.218 -2.84217e-14,-398.218 -2.84217e-14,-392.218 -2.84217e-14,-392.218 -2.84217e-14,-323.218 -2.84217e-14,-323.218 -2.84217e-14,-317.218 6,-311.218 12,-311.218"/>
<text text-anchor="middle" x="97" y="-389.018" font-family="Times,serif" font-size="14.00">ApplicationController</text>
<polyline fill="none" stroke="black" points="-2.84217e-14,-381.218 194,-381.218 "/>
<polyline fill="none" stroke="black" points="-2.84217e-14,-357.218 194,-357.218 "/>
<text text-anchor="start" x="8" y="-342.018" font-family="Times,serif" font-size="14.00">configure_permitted_parameters</text>
<polyline fill="none" stroke="black" points="-2.84217e-14,-334.218 194,-334.218 "/>
<text text-anchor="start" x="8" y="-319.018" font-family="Times,serif" font-size="14.00">_layout</text>
</g>
<!-- ApplicationController&#45;&gt;PostsController -->
<g id="edge1" class="edge"><title>ApplicationController&#45;&gt;PostsController</title>
<path fill="none" stroke="black" d="M101.053,-311.147C103.444,-283.675 106.574,-247.712 109.539,-213.637"/>
</g>
<!-- ApplicationController&#45;&gt;UsersController -->
<g id="edge2" class="edge"><title>ApplicationController&#45;&gt;UsersController</title>
<path fill="none" stroke="black" d="M150.601,-311.16C187.178,-279.39 235.362,-237.538 271.518,-206.132"/>
</g>
<!-- FriendsController -->
<g id="node6" class="node"><title>FriendsController</title>
<path fill="none" stroke="black" d="M231.143,-339.967C231.143,-339.967 320.143,-339.967 320.143,-339.967 326.143,-339.967 332.143,-345.967 332.143,-351.967 332.143,-351.967 332.143,-540.967 332.143,-540.967 332.143,-546.967 326.143,-552.967 320.143,-552.967 320.143,-552.967 231.143,-552.967 231.143,-552.967 225.143,-552.967 219.143,-546.967 219.143,-540.967 219.143,-540.967 219.143,-351.967 219.143,-351.967 219.143,-345.967 225.143,-339.967 231.143,-339.967"/>
<text text-anchor="middle" x="275.643" y="-537.767" font-family="Times,serif" font-size="14.00">FriendsController</text>
<polyline fill="none" stroke="black" points="219.143,-529.967 332.143,-529.967 "/>
<text text-anchor="start" x="227.143" y="-514.767" font-family="Times,serif" font-size="14.00">create</text>
<text text-anchor="start" x="227.143" y="-499.767" font-family="Times,serif" font-size="14.00">destroy</text>
<text text-anchor="start" x="227.143" y="-484.767" font-family="Times,serif" font-size="14.00">edit</text>
<text text-anchor="start" x="227.143" y="-469.767" font-family="Times,serif" font-size="14.00">index</text>
<text text-anchor="start" x="227.143" y="-454.767" font-family="Times,serif" font-size="14.00">new</text>
<text text-anchor="start" x="227.143" y="-439.767" font-family="Times,serif" font-size="14.00">show</text>
<text text-anchor="start" x="227.143" y="-424.767" font-family="Times,serif" font-size="14.00">update</text>
<polyline fill="none" stroke="black" points="219.143,-416.967 332.143,-416.967 "/>
<polyline fill="none" stroke="black" points="219.143,-392.967 332.143,-392.967 "/>
<text text-anchor="start" x="227.143" y="-377.767" font-family="Times,serif" font-size="14.00">_layout</text>
<text text-anchor="start" x="227.143" y="-362.767" font-family="Times,serif" font-size="14.00">friend_params</text>
<text text-anchor="start" x="227.143" y="-347.767" font-family="Times,serif" font-size="14.00">set_friend</text>
</g>
<!-- ApplicationController&#45;&gt;FriendsController -->
<g id="edge4" class="edge"><title>ApplicationController&#45;&gt;FriendsController</title>
<path fill="none" stroke="black" d="M190.768,-404.302C200.372,-409.072 209.906,-413.809 218.926,-418.29"/>
</g>
<!-- Users::OmniauthCallbacksController -->
<g id="node5" class="node"><title>Users::OmniauthCallbacksController</title>
<path fill="none" stroke="black" d="M397,-280.5C397,-280.5 591,-280.5 591,-280.5 597,-280.5 603,-286.5 603,-292.5 603,-292.5 603,-376.5 603,-376.5 603,-382.5 597,-388.5 591,-388.5 591,-388.5 397,-388.5 397,-388.5 391,-388.5 385,-382.5 385,-376.5 385,-376.5 385,-292.5 385,-292.5 385,-286.5 391,-280.5 397,-280.5"/>
<text text-anchor="middle" x="494" y="-373.3" font-family="Times,serif" font-size="14.00">Users::OmniauthCallbacksController</text>
<polyline fill="none" stroke="black" points="385,-365.5 603,-365.5 "/>
<text text-anchor="start" x="393" y="-350.3" font-family="Times,serif" font-size="14.00">facebook</text>
<text text-anchor="start" x="393" y="-335.3" font-family="Times,serif" font-size="14.00">twitter</text>
<polyline fill="none" stroke="black" points="385,-327.5 603,-327.5 "/>
<polyline fill="none" stroke="black" points="385,-303.5 603,-303.5 "/>
<text text-anchor="start" x="393" y="-288.3" font-family="Times,serif" font-size="14.00">_layout</text>
</g>
<!-- Devise::OmniauthCallbacksController -->
<g id="node7" class="node"><title>Devise::OmniauthCallbacksController</title>
<ellipse fill="none" stroke="black" cx="763.315" cy="-334.5" rx="146.474" ry="18"/>
<text text-anchor="middle" x="763.315" y="-330.8" font-family="Times,serif" font-size="14.00">Devise::OmniauthCallbacksController</text>
</g>
<!-- Devise::OmniauthCallbacksController&#45;&gt;Users::OmniauthCallbacksController -->
<g id="edge3" class="edge"><title>Devise::OmniauthCallbacksController&#45;&gt;Users::OmniauthCallbacksController</title>
<path fill="none" stroke="black" d="M616.836,-334.5C612.271,-334.5 607.725,-334.5 603.218,-334.5"/>
</g>
</g>
</svg>
