<?xml version="1.0" encoding="UTF-8" standalone="no"?>
<!DOCTYPE svg PUBLIC "-//W3C//DTD SVG 1.1//EN"
 "http://www.w3.org/Graphics/SVG/1.1/DTD/svg11.dtd">
<!-- Generated by graphviz version 2.36.0 (20140111.2315)
 -->
<!-- Title: models_diagram Pages: 1 -->
<svg width="419pt" height="230pt"
 viewBox="0.00 0.00 419.00 230.00" xmlns="http://www.w3.org/2000/svg" xmlns:xlink="http://www.w3.org/1999/xlink">
<g id="graph0" class="graph" transform="scale(1 1) rotate(0) translate(4 226)">
<title>models_diagram</title>
<polygon fill="white" stroke="none" points="-4,4 -4,-226 415,-226 415,4 -4,4"/>
<!-- _diagram_info -->
<g id="node1" class="node"><title>_diagram_info</title>
<text text-anchor="start" x="8" y="-207.6" font-family="Times,serif" font-size="13.00">Models diagram</text>
<text text-anchor="start" x="8" y="-193.6" font-family="Times,serif" font-size="13.00">Date: Aug 11 2014 &#45; 13:24</text>
<text text-anchor="start" x="8" y="-179.6" font-family="Times,serif" font-size="13.00">Migration version: 20140808092127</text>
<text text-anchor="start" x="8" y="-165.6" font-family="Times,serif" font-size="13.00">Generated by RailRoady 1.1.2</text>
<text text-anchor="start" x="8" y="-151.6" font-family="Times,serif" font-size="13.00">http://railroady.prestonlee.com</text>
</g>
<!-- User -->
<g id="node2" class="node"><title>User</title>
<ellipse fill="none" stroke="black" cx="313" cy="-90" rx="26.949" ry="18"/>
<text text-anchor="middle" x="313" y="-86.3" font-family="Times,serif" font-size="14.00">User</text>
</g>
<!-- Post -->
<g id="node3" class="node"><title>Post</title>
<ellipse fill="none" stroke="black" cx="266" cy="-18" rx="27" ry="18"/>
<text text-anchor="middle" x="266" y="-14.3" font-family="Times,serif" font-size="14.00">Post</text>
</g>
<!-- User&#45;&gt;Post -->
<g id="edge1" class="edge"><title>User&#45;&gt;Post</title>
<path fill="none" stroke="#f4fc4a" d="M297.764,-66.3083C292.802,-58.9172 287.276,-50.687 282.242,-43.1904"/>
<ellipse fill="none" stroke="#f4fc4a" cx="300.105" cy="-69.795" rx="4.00002" ry="4.00002"/>
<polygon fill="#f4fc4a" stroke="#f4fc4a" points="282.197,-43.1235 280.359,-32.3128 279.41,-38.9723 276.623,-34.8212 276.623,-34.8212 276.623,-34.8212 279.41,-38.9723 272.887,-37.3297 282.197,-43.1235 282.197,-43.1235"/>
</g>
<!-- Friend -->
<g id="node4" class="node"><title>Friend</title>
<ellipse fill="none" stroke="black" cx="360" cy="-18" rx="33.1991" ry="18"/>
<text text-anchor="middle" x="360" y="-14.3" font-family="Times,serif" font-size="14.00">Friend</text>
</g>
<!-- User&#45;&gt;Friend -->
<g id="edge2" class="edge"><title>User&#45;&gt;Friend</title>
<path fill="none" stroke="#b7d0ec" d="M328.169,-66.4085C333.056,-59.1291 338.496,-51.027 343.476,-43.6096"/>
<ellipse fill="none" stroke="#b7d0ec" cx="325.895" cy="-69.795" rx="4.00002" ry="4.00002"/>
<polygon fill="#b7d0ec" stroke="#b7d0ec" points="343.477,-43.6092 352.787,-37.8155 346.264,-39.4581 349.051,-35.307 349.051,-35.307 349.051,-35.307 346.264,-39.4581 345.315,-32.7985 343.477,-43.6092 343.477,-43.6092"/>
</g>
<!-- Friend&#45;&gt;Friend -->
<g id="edge5" class="edge"><title>Friend&#45;&gt;Friend</title>
<path fill="none" stroke="#088585" d="M394.022,-31.4369C403.622,-30.8637 411,-26.3848 411,-18 411,-9.61523 403.622,-5.13626 394.022,-4.56309"/>
<polygon fill="#088585" stroke="#088585" points="393.846,-31.4244 384.194,-26.2197 388.859,-31.0663 383.872,-30.7082 383.872,-30.7082 383.872,-30.7082 388.859,-31.0663 383.55,-35.1966 393.846,-31.4244 393.846,-31.4244"/>
<polygon fill="#088585" stroke="#088585" points="393.846,-4.57562 383.55,-0.803393 388.859,-4.93373 383.872,-5.29184 383.872,-5.29184 383.872,-5.29184 388.859,-4.93373 384.194,-9.78029 393.846,-4.57562 393.846,-4.57562"/>
</g>
<!-- ActiveRecord::Base -->
<g id="node5" class="node"><title>ActiveRecord::Base</title>
<ellipse fill="none" stroke="black" cx="313" cy="-183" rx="81.3646" ry="18"/>
<text text-anchor="middle" x="313" y="-179.3" font-family="Times,serif" font-size="14.00">ActiveRecord::Base</text>
</g>
<!-- ActiveRecord::Base&#45;&gt;User -->
<g id="edge3" class="edge"><title>ActiveRecord::Base&#45;&gt;User</title>
<path fill="none" stroke="black" d="M313,-164.884C313,-148.614 313,-124.284 313,-108.04"/>
</g>
<!-- ActiveRecord::Base&#45;&gt;Post -->
<g id="edge4" class="edge"><title>ActiveRecord::Base&#45;&gt;Post</title>
<path fill="none" stroke="black" d="M302.724,-165.014C294.398,-150.423 283.084,-128.548 277,-108 269.795,-83.6669 267.306,-54.2389 266.448,-36.069"/>
</g>
<!-- ActiveRecord::Base&#45;&gt;Friend -->
<g id="edge6" class="edge"><title>ActiveRecord::Base&#45;&gt;Friend</title>
<path fill="none" stroke="black" d="M323.276,-165.014C331.602,-150.423 342.916,-128.548 349,-108 356.205,-83.6669 358.694,-54.2389 359.552,-36.069"/>
</g>
</g>
</svg>
