<?xml version="1.0" encoding="UTF-8" standalone="no"?>
<!DOCTYPE svg PUBLIC "-//W3C//DTD SVG 1.1//EN"
 "http://www.w3.org/Graphics/SVG/1.1/DTD/svg11.dtd">
<!-- Generated by graphviz version 2.36.0 (20140111.2315)
 -->
<!-- Title: models_diagram Pages: 1 -->
<svg width="505pt" height="552pt"
 viewBox="0.00 0.00 505.00 552.00" xmlns="http://www.w3.org/2000/svg" xmlns:xlink="http://www.w3.org/1999/xlink">
<g id="graph0" class="graph" transform="scale(1 1) rotate(0) translate(4 548)">
<title>models_diagram</title>
<polygon fill="white" stroke="none" points="-4,4 -4,-548 501,-548 501,4 -4,4"/>
<!-- _diagram_info -->
<g id="node1" class="node"><title>_diagram_info</title>
<text text-anchor="start" x="8" y="-529.6" font-family="Times,serif" font-size="13.00">Models diagram</text>
<text text-anchor="start" x="8" y="-515.6" font-family="Times,serif" font-size="13.00">Date: Aug 11 2014 &#45; 13:24</text>
<text text-anchor="start" x="8" y="-501.6" font-family="Times,serif" font-size="13.00">Migration version: 20140808092127</text>
<text text-anchor="start" x="8" y="-487.6" font-family="Times,serif" font-size="13.00">Generated by RailRoady 1.1.2</text>
<text text-anchor="start" x="8" y="-473.6" font-family="Times,serif" font-size="13.00">http://railroady.prestonlee.com</text>
</g>
<!-- User -->
<g id="node2" class="node"><title>User</title>
<path fill="none" stroke="black" d="M225,-158.5C225,-158.5 401,-158.5 401,-158.5 407,-158.5 413,-164.5 413,-170.5 413,-170.5 413,-417.5 413,-417.5 413,-423.5 407,-429.5 401,-429.5 401,-429.5 225,-429.5 225,-429.5 219,-429.5 213,-423.5 213,-417.5 213,-417.5 213,-170.5 213,-170.5 213,-164.5 219,-158.5 225,-158.5"/>
<text text-anchor="middle" x="313" y="-414.3" font-family="Times,serif" font-size="14.00">User</text>
<polyline fill="none" stroke="black" points="213,-406.5 413,-406.5 "/>
<text text-anchor="start" x="221" y="-391.3" font-family="Times,serif" font-size="14.00">id :integer</text>
<text text-anchor="start" x="221" y="-376.3" font-family="Times,serif" font-size="14.00">first_name :string</text>
<text text-anchor="start" x="221" y="-361.3" font-family="Times,serif" font-size="14.00">last_name :string</text>
<text text-anchor="start" x="221" y="-346.3" font-family="Times,serif" font-size="14.00">username :string</text>
<text text-anchor="start" x="221" y="-331.3" font-family="Times,serif" font-size="14.00">email :string</text>
<text text-anchor="start" x="221" y="-316.3" font-family="Times,serif" font-size="14.00">encrypted_password :string</text>
<text text-anchor="start" x="221" y="-301.3" font-family="Times,serif" font-size="14.00">reset_password_token :string</text>
<text text-anchor="start" x="221" y="-286.3" font-family="Times,serif" font-size="14.00">reset_password_sent_at :datetime</text>
<text text-anchor="start" x="221" y="-271.3" font-family="Times,serif" font-size="14.00">remember_created_at :datetime</text>
<text text-anchor="start" x="221" y="-256.3" font-family="Times,serif" font-size="14.00">sign_in_count :integer</text>
<text text-anchor="start" x="221" y="-241.3" font-family="Times,serif" font-size="14.00">current_sign_in_at :datetime</text>
<text text-anchor="start" x="221" y="-226.3" font-family="Times,serif" font-size="14.00">last_sign_in_at :datetime</text>
<text text-anchor="start" x="221" y="-211.3" font-family="Times,serif" font-size="14.00">current_sign_in_ip :string</text>
<text text-anchor="start" x="221" y="-196.3" font-family="Times,serif" font-size="14.00">last_sign_in_ip :string</text>
<text text-anchor="start" x="221" y="-181.3" font-family="Times,serif" font-size="14.00">created_at :datetime</text>
<text text-anchor="start" x="221" y="-166.3" font-family="Times,serif" font-size="14.00">updated_at :datetime</text>
</g>
<!-- Post -->
<g id="node3" class="node"><title>Post</title>
<path fill="none" stroke="black" d="M158.5,-8C158.5,-8 265.5,-8 265.5,-8 271.5,-8 277.5,-14 277.5,-20 277.5,-20 277.5,-102 277.5,-102 277.5,-108 271.5,-114 265.5,-114 265.5,-114 158.5,-114 158.5,-114 152.5,-114 146.5,-108 146.5,-102 146.5,-102 146.5,-20 146.5,-20 146.5,-14 152.5,-8 158.5,-8"/>
<text text-anchor="middle" x="212" y="-98.8" font-family="Times,serif" font-size="14.00">Post</text>
<polyline fill="none" stroke="black" points="146.5,-91 277.5,-91 "/>
<text text-anchor="start" x="154.5" y="-75.8" font-family="Times,serif" font-size="14.00">id :integer</text>
<text text-anchor="start" x="154.5" y="-60.8" font-family="Times,serif" font-size="14.00">content :text</text>
<text text-anchor="start" x="154.5" y="-45.8" font-family="Times,serif" font-size="14.00">created_at :datetime</text>
<text text-anchor="start" x="154.5" y="-30.8" font-family="Times,serif" font-size="14.00">updated_at :datetime</text>
<text text-anchor="start" x="154.5" y="-15.8" font-family="Times,serif" font-size="14.00">user_id :integer</text>
</g>
<!-- User&#45;&gt;Post -->
<g id="edge1" class="edge"><title>User&#45;&gt;Post</title>
<path fill="none" stroke="#97d0a3" d="M250.755,-150.638C246.608,-141.153 242.573,-131.924 238.77,-123.227"/>
<ellipse fill="none" stroke="#97d0a3" cx="252.499" cy="-154.627" rx="4.00002" ry="4.00002"/>
<polygon fill="#97d0a3" stroke="#97d0a3" points="238.747,-123.173 238.864,-112.208 236.744,-118.592 234.741,-114.011 234.741,-114.011 234.741,-114.011 236.744,-118.592 230.618,-115.814 238.747,-123.173 238.747,-123.173"/>
</g>
<!-- Friend -->
<g id="node4" class="node"><title>Friend</title>
<path fill="none" stroke="black" d="M360.5,-0.5C360.5,-0.5 467.5,-0.5 467.5,-0.5 473.5,-0.5 479.5,-6.5 479.5,-12.5 479.5,-12.5 479.5,-109.5 479.5,-109.5 479.5,-115.5 473.5,-121.5 467.5,-121.5 467.5,-121.5 360.5,-121.5 360.5,-121.5 354.5,-121.5 348.5,-115.5 348.5,-109.5 348.5,-109.5 348.5,-12.5 348.5,-12.5 348.5,-6.5 354.5,-0.5 360.5,-0.5"/>
<text text-anchor="middle" x="414" y="-106.3" font-family="Times,serif" font-size="14.00">Friend</text>
<polyline fill="none" stroke="black" points="348.5,-98.5 479.5,-98.5 "/>
<text text-anchor="start" x="356.5" y="-83.3" font-family="Times,serif" font-size="14.00">id :integer</text>
<text text-anchor="start" x="356.5" y="-68.3" font-family="Times,serif" font-size="14.00">user_id :integer</text>
<text text-anchor="start" x="356.5" y="-53.3" font-family="Times,serif" font-size="14.00">friend_id :integer</text>
<text text-anchor="start" x="356.5" y="-38.3" font-family="Times,serif" font-size="14.00">action :string</text>
<text text-anchor="start" x="356.5" y="-23.3" font-family="Times,serif" font-size="14.00">created_at :datetime</text>
<text text-anchor="start" x="356.5" y="-8.3" font-family="Times,serif" font-size="14.00">updated_at :datetime</text>
</g>
<!-- User&#45;&gt;Friend -->
<g id="edge2" class="edge"><title>User&#45;&gt;Friend</title>
<path fill="none" stroke="#866dad" d="M375.152,-150.851C378.135,-144.029 381.06,-137.337 383.884,-130.879"/>
<ellipse fill="none" stroke="#866dad" cx="373.501" cy="-154.627" rx="4.00002" ry="4.00002"/>
<polygon fill="#866dad" stroke="#866dad" points="383.936,-130.759 392.066,-123.4 385.939,-126.178 387.943,-121.597 387.943,-121.597 387.943,-121.597 385.939,-126.178 383.819,-119.794 383.936,-130.759 383.936,-130.759"/>
</g>
<!-- Friend&#45;&gt;Friend -->
<g id="edge5" class="edge"><title>Friend&#45;&gt;Friend</title>
<path fill="none" stroke="#9d2ac4" d="M487.548,-94.0977C493.388,-86.8512 497,-75.8186 497,-61 497,-46.1814 493.388,-35.1488 487.548,-27.9023"/>
<polygon fill="#9d2ac4" stroke="#9d2ac4" points="487.304,-94.3097 476.803,-97.4671 483.528,-97.5875 479.753,-100.865 479.753,-100.865 479.753,-100.865 483.528,-97.5875 482.703,-104.263 487.304,-94.3097 487.304,-94.3097"/>
<polygon fill="#9d2ac4" stroke="#9d2ac4" points="487.304,-27.6903 482.703,-17.7366 483.528,-24.4125 479.753,-21.1347 479.753,-21.1347 479.753,-21.1347 483.528,-24.4125 476.803,-24.5329 487.304,-27.6903 487.304,-27.6903"/>
</g>
<!-- ActiveRecord::Base -->
<g id="node5" class="node"><title>ActiveRecord::Base</title>
<ellipse fill="none" stroke="black" cx="313" cy="-505" rx="81.3646" ry="18"/>
<text text-anchor="middle" x="313" y="-501.3" font-family="Times,serif" font-size="14.00">ActiveRecord::Base</text>
</g>
<!-- ActiveRecord::Base&#45;&gt;User -->
<g id="edge3" class="edge"><title>ActiveRecord::Base&#45;&gt;User</title>
<path fill="none" stroke="black" d="M313,-486.897C313,-473.15 313,-452.422 313,-429.599"/>
</g>
<!-- ActiveRecord::Base&#45;&gt;Post -->
<g id="edge4" class="edge"><title>ActiveRecord::Base&#45;&gt;Post</title>
<path fill="none" stroke="black" d="M274.292,-489.105C249.296,-477.216 218.776,-457.892 204,-430 150.375,-328.779 175.768,-188.887 195.814,-114.103"/>
</g>
<!-- ActiveRecord::Base&#45;&gt;Friend -->
<g id="edge6" class="edge"><title>ActiveRecord::Base&#45;&gt;Friend</title>
<path fill="none" stroke="black" d="M351.708,-489.105C376.704,-477.216 407.224,-457.892 422,-430 473.83,-332.167 451.843,-198.208 432.214,-121.828"/>
</g>
</g>
</svg>
